<svg id="Glasses-Helmet--Streamline-Atlas" xmlns="http://www.w3.org/2000/svg" viewBox="-0.5 -0.5 16 16" height="16" width="16">
  <desc>
    Glasses Helmet Streamline Icon: https://streamlinehq.com
  </desc>
  <defs></defs>
  <path d="m4.518750000000001 4.518750000000001 0 -2.9875000000000003" fill="none" stroke="#000000" stroke-miterlimit="10" stroke-width="1"></path>
  <path d="m10.48125 4.518750000000001 0 -2.9875000000000003" fill="none" stroke="#000000" stroke-miterlimit="10" stroke-width="1"></path>
  <path d="M11.08125 14.0625h-1.525a1.2 1.2 0 0 1 -1.1375 -0.8187500000000001l-0.13125 -0.40625a0.8250000000000001 0.8250000000000001 0 0 0 -0.7875 -0.5625 0.8250000000000001 0.8250000000000001 0 0 0 -0.7875 0.5625l-0.13125 0.40625a1.2 1.2 0 0 1 -1.1375 0.8187500000000001H3.9187499999999997a1.7874999999999999 1.7874999999999999 0 0 1 -1.7874999999999999 -1.7874999999999999v-2.9875000000000003h10.7375v2.9875000000000003a1.7874999999999999 1.7874999999999999 0 0 1 -1.7874999999999999 1.7874999999999999Z" fill="none" stroke="#000000" stroke-miterlimit="10" stroke-width="1"></path>
  <path d="m14.65625 6.90625 -14.3125 0" fill="none" stroke="#000000" stroke-miterlimit="10" stroke-width="1"></path>
  <path d="M7.5 0.9375a5.36875 5.36875 0 0 1 5.36875 5.36875v0.625H2.13125v-0.625A5.36875 5.36875 0 0 1 7.5 0.9375Z" fill="none" stroke="#000000" stroke-miterlimit="10" stroke-width="1"></path>
  <path d="m7.5 5.1125 0 -4.175" fill="none" stroke="#000000" stroke-miterlimit="10" stroke-width="1"></path>
</svg>