<svg id="Handshake-Hand-Gesture--Streamline-Atlas" xmlns="http://www.w3.org/2000/svg" viewBox="-0.5 -0.5 16 16" height="16" width="16">
  <desc>
    Handshake Hand Gesture Streamline Icon: https://streamlinehq.com
  </desc>
  <defs></defs>
  <path d="M0.9375 9.30625h1.1937499999999999l3.125 1.7937500000000002a4.50625 4.50625 0 0 0 2.24375 0.5874999999999999" fill="none" stroke="#000000" stroke-miterlimit="10" stroke-width="1"></path>
  <path d="m11.975 9.818750000000001 0.8937499999999999 -0.5125 1.1937499999999999 0" fill="none" stroke="#000000" stroke-miterlimit="10" stroke-width="1"></path>
  <path d="M7.5 11.6875a4.50625 4.50625 0 0 0 2.2312499999999997 -0.5874999999999999l1.25 -0.73125 -2.3000000000000003 -3.4499999999999997 -1.65625 0.41250000000000003a2.1375 2.1375 0 0 1 -0.49375 0.056249999999999994A2.0374999999999996 2.0374999999999996 0 0 1 5.625 7.175000000000001a0.93125 0.93125 0 0 1 0.05 -1.69375l3.175 -1.35625a2.35625 2.35625 0 0 1 2.225 0.20625000000000002l1.2 0.79375h1.7874999999999999" fill="none" stroke="#000000" stroke-miterlimit="10" stroke-width="1"></path>
  <path d="M0.9375 5.125h1.7874999999999999l1.2 -0.79375a2.35625 2.35625 0 0 1 2.225 -0.20625000000000002l1.35 0.58125" fill="none" stroke="#000000" stroke-miterlimit="10" stroke-width="1"></path>
  <path d="m14.0625 3.9375 0 6.5625" fill="none" stroke="#000000" stroke-miterlimit="10" stroke-width="1"></path>
  <path d="m0.9375 3.9375 0 6.5625" fill="none" stroke="#000000" stroke-miterlimit="10" stroke-width="1"></path>
</svg>