<svg id="House-Hand--Streamline-Atlas" xmlns="http://www.w3.org/2000/svg" viewBox="-0.5 -0.5 16 16" height="16" width="16">
  <desc>
    House Hand Streamline Icon: https://streamlinehq.com
  </desc>
  <defs></defs>
  <path d="M0.925 14.6875v-1.7937500000000002a4.1875 4.1875 0 0 1 4.18125 -4.1875h3.5875000000000004a1.2 1.2 0 0 1 1.2 1.2 1.2 1.2 0 0 1 -1.2 1.1937499999999999h0.625l2.6187500000000004 -2.6187500000000004a1.25 1.25 0 0 1 0.8687499999999999 -0.35624999999999996 1.25 1.25 0 0 1 1.25 1.25 1.25 1.25 0 0 1 -0.36874999999999997 0.8937499999999999l-2.5 2.5a2.4 2.4 0 0 1 -1.6875 0.7000000000000001H6.875a1.1937499999999999 1.1937499999999999 0 0 0 -1.1687500000000002 1.21875" fill="none" stroke="#000000" stroke-miterlimit="10" stroke-width="1"></path>
  <path d="M4.5125 4.39375h5.98125v4.31875H4.5125Z" fill="none" stroke="#000000" stroke-miterlimit="10" stroke-width="1"></path>
  <path d="M7.5 0.9375 3.9124999999999996 4.39375l7.175000000000001 0L7.5 0.9375z" fill="none" stroke="#000000" stroke-miterlimit="10" stroke-width="1"></path>
  <path d="M6.8999999999999995 6.91875h1.1937499999999999v1.7937500000000002h-1.1937499999999999Z" fill="none" stroke="#000000" stroke-miterlimit="10" stroke-width="1"></path>
</svg>